<?xml version="1.0" encoding="UTF-8" standalone="no"?>
<!-- Created with Inkscape (http://www.inkscape.org/) -->

<svg
   width="153.28798mm"
   height="153.28795mm"
   viewBox="0 0 153.28798 153.28795"
   version="1.1"
   id="svg1"
   xml:space="preserve"
   sodipodi:docname="so-dark.svg"
   inkscape:version="1.4 (e7c3feb100, 2024-10-09)"
   xmlns:inkscape="http://www.inkscape.org/namespaces/inkscape"
   xmlns:sodipodi="http://sodipodi.sourceforge.net/DTD/sodipodi-0.dtd"
   xmlns="http://www.w3.org/2000/svg"
   xmlns:svg="http://www.w3.org/2000/svg"><sodipodi:namedview
     id="namedview1"
     pagecolor="#505050"
     bordercolor="#eeeeee"
     borderopacity="1"
     inkscape:showpageshadow="0"
     inkscape:pageopacity="0"
     inkscape:pagecheckerboard="0"
     inkscape:deskcolor="#505050"
     inkscape:document-units="mm"
     inkscape:zoom="0.95278201"
     inkscape:cx="289.67801"
     inkscape:cy="289.67801"
     inkscape:window-width="1366"
     inkscape:window-height="761"
     inkscape:window-x="0"
     inkscape:window-y="0"
     inkscape:window-maximized="1"
     inkscape:current-layer="svg1" /><defs
     id="defs1" /><circle
     style="fill:#31313a;fill-opacity:1;stroke-width:0.264583"
     id="path7"
     cx="64.000221"
     cy="89.287842"
     r="32" /><path
     id="background0"
     style="display:inline;fill:#31313a;fill-opacity:1;stroke-width:0.265155"
     d="M 64.00023,25.288023 A 64,64 0 0 0 0,89.288243 64,64 0 0 0 64.00023,153.28796 64,64 0 0 0 127.99994,89.288243 64,64 0 0 0 64.00023,25.288023 Z m 0,16.00005 A 48,48 0 0 1 112.0004,89.288243 48,48 0 0 1 64.00023,137.2879 48,48 0 0 1 16.00006,89.288243 48,48 0 0 1 64.00023,41.288073 Z" /><path
     style="display:inline;fill:#31313a;fill-opacity:1;stroke-width:0.264999;stroke-dasharray:none"
     id="path3"
     d="m 127.99994,0 8.94067,16.347369 16.34737,8.940674 -16.34737,8.940673 -8.94067,16.347368 -8.94068,-16.347368 -16.34737,-8.940675 16.34737,-8.940673 z" /><path
     style="fill:#31313a;fill-opacity:1;stroke-width:0.171602;stroke-dasharray:none"
     id="path3-0"
     d="m 127.99994,8.10287 5.51682,11.109299 10.08712,6.075877 -10.08712,6.075878 -5.51682,11.109298 -5.51683,-11.109298 -10.08712,-6.075879 10.08712,-6.075877 z" /></svg>
